<?xml version="1.0" encoding="UTF-8"?><svg width="472px" height="304px" viewBox="0 0 472 304" version="1.1" xmlns="http://www.w3.org/2000/svg" xmlns:xlink="http://www.w3.org/1999/xlink">        <title>img_mail_confirm</title>    <desc>Created with Sketch.</desc>    <g id="Login" stroke="none" stroke-width="1" fill="none" fill-rule="evenodd">        <g id="3_3_05_Signin" transform="translate(-564.000000, -179.000000)">            <g id="img_mail_confirm" transform="translate(564.000000, 179.000000)">                <path d="M437.6016,267.6306 C440.3316,253.9636 441.7736,239.8306 441.7736,225.3596 C441.7736,106.8246 345.6826,10.7326 227.1466,10.7326 C108.6116,10.7326 12.5186,106.8246 12.5186,225.3596 C12.5186,239.8306 13.9606,253.9636 16.6906,267.6306 L437.6016,267.6306 Z" id="Fill-1" fill="#E6F3FF"></path>                <path d="M126.5532,140.2258 L121.8732,131.8158 C121.9452,130.1938 122.3982,126.4418 123.8482,124.7938 L124.0622,124.5518 L224.6922,29.7438 C224.8432,29.6018 225.0452,29.5238 225.2632,29.5238 C225.4822,29.5238 225.6852,29.6018 225.8352,29.7428 L326.5322,124.6148 L326.6072,124.6988 C328.1112,126.2968 328.5192,130.1498 328.5642,131.8078 L323.8812,140.2258 L225.2172,195.3608 L126.5532,140.2258 Z" id="Fill-3" fill="#6494DB"></path>                <path d="M225.2646,28.5237 C224.8096,28.5237 224.3546,28.6877 224.0066,29.0157 L123.0976,124.0867 L123.0976,124.1337 C120.9776,126.5417 120.8646,132.0597 120.8646,132.0597 L125.8176,140.9607 L225.1036,196.4437 L225.1036,196.5697 L225.2156,196.5067 L225.3286,196.5697 L225.3286,196.4437 L324.6166,140.9607 L329.5686,132.0597 C329.5686,132.0597 329.5406,126.3577 327.3356,124.0137 L327.3356,123.9977 L327.2306,123.8997 C327.1866,123.8547 327.1416,123.8117 327.0936,123.7697 L226.5216,29.0157 C226.1746,28.6877 225.7196,28.5237 225.2646,28.5237 M225.2646,30.5787 L325.7226,125.2257 L325.7696,125.2717 L325.7866,125.2867 L325.8786,125.3847 C327.0126,126.5887 327.4696,129.7837 327.5536,131.5657 L323.1446,139.4917 L225.2156,194.2157 L127.2886,139.4917 L122.8866,131.5797 C122.9956,129.8347 123.4846,126.7207 124.5986,125.4557 L124.7216,125.3037 L225.2646,30.5787" id="Fill-5" fill="#535353"></path>                <path d="M52.584,210.9836 C52.538,210.9606 51.426,210.4156 49.527,209.3456 L50.485,207.6466 C52.329,208.6846 53.431,209.2256 53.441,209.2306 L52.584,210.9836 Z" id="Fill-7" fill="#5B5784"></path>                <path d="M56.188,54.5202 L55.113,52.8922 C56.93,51.6922 58.805,50.4782 60.741,49.2492 L61.787,50.8962 C59.861,52.1192 57.995,53.3272 56.188,54.5202 L56.188,54.5202 Z M47.537,60.4232 L46.41,58.8302 C48.19,57.5722 50.046,56.2902 51.928,55.0192 L53.02,56.6362 C51.149,57.8992 49.305,59.1732 47.537,60.4232 L47.537,60.4232 Z M39.103,66.6222 L37.916,65.0732 C39.638,63.7532 41.447,62.4042 43.293,61.0622 L44.44,62.6412 C42.607,63.9732 40.812,65.3122 39.103,66.6222 L39.103,66.6222 Z M30.956,73.1742 L29.695,71.6852 C31.354,70.2802 33.102,68.8502 34.891,67.4322 L36.103,68.9602 C34.331,70.3652 32.599,71.7832 30.956,73.1742 L30.956,73.1742 Z M23.196,80.1582 L21.843,78.7512 C23.403,77.2512 25.067,75.7192 26.79,74.1972 L28.082,75.6592 C26.38,77.1632 24.736,78.6762 23.196,80.1582 L23.196,80.1582 Z M15.992,87.6802 L14.522,86.3962 C15.941,84.7722 17.484,83.1102 19.108,81.4572 L20.5,82.8242 C18.902,84.4512 17.386,86.0842 15.992,87.6802 L15.992,87.6802 Z M9.644,95.8802 L8.023,94.7922 C9.218,93.0122 10.569,91.1812 12.042,89.3512 L13.563,90.5742 C12.125,92.3602 10.807,94.1452 9.644,95.8802 L9.644,95.8802 Z M4.731,104.9132 L2.925,104.1752 C3.735,102.1922 4.757,100.1412 5.961,98.0772 L7.646,99.0622 C6.488,101.0462 5.507,103.0152 4.731,104.9132 L4.731,104.9132 Z M2.425,114.7542 L0.476,114.6782 C0.561,112.5012 0.949,110.2112 1.628,107.8732 L3.502,108.4172 C2.866,110.6042 2.504,112.7352 2.425,114.7542 L2.425,114.7542 Z M17.635,118.4212 C17.168,117.4352 16.595,116.7602 16.359,116.5062 C15.236,116.0362 14.15,115.7572 13.126,115.6782 L13.277,113.7332 C14.57,113.8332 15.927,114.1892 17.311,114.7912 L17.466,114.8582 L17.59,114.9752 C17.632,115.0152 18.632,115.9672 19.399,117.5852 L17.635,118.4212 Z M5.413,120.1842 L3.747,119.1692 C4.723,117.5662 6.443,115.4302 9.094,114.3592 L9.825,116.1682 C7.669,117.0402 6.236,118.8332 5.413,120.1842 L5.413,120.1842 Z M16.56,127.9282 L15.386,126.3692 C16.726,125.3602 17.654,124.2382 17.924,123.8942 C18.179,123.1542 18.318,122.4092 18.339,121.6772 L20.289,121.7322 C20.261,122.7182 20.066,123.7162 19.71,124.6982 L19.58,124.9402 C19.533,125.0052 18.399,126.5422 16.56,127.9282 L16.56,127.9282 Z M2.751,129.9192 L0.826,129.6032 C1.148,127.6422 1.571,125.6502 2.084,123.6712 C1.511,122.3812 0.956,120.7042 0.667,118.6632 L2.6,118.3902 C2.908,120.5702 3.549,122.2772 4.151,123.4842 L4.152,123.4842 C4.309,123.7992 4.463,124.0802 4.607,124.3262 L3.812,124.7942 C3.385,126.5072 3.029,128.2262 2.751,129.9192 L2.751,129.9192 Z M10.624,130.1552 C8.912,130.1552 7.255,129.5842 5.698,128.4592 L6.842,126.8772 C8.584,128.1372 10.426,128.4982 12.33,127.9582 L12.863,129.8352 C12.116,130.0472 11.362,130.1552 10.624,130.1552 L10.624,130.1552 Z M0.003,140.2342 L0,139.5882 C0,137.5602 0.105,135.4952 0.313,133.4492 L2.254,133.6462 C2.053,135.6272 1.951,137.6262 1.951,139.5882 L1.954,140.2122 L0.003,140.2342 Z M1.084,150.8442 C0.652,148.6252 0.346,146.3612 0.173,144.1132 L2.119,143.9642 C2.286,146.1362 2.582,148.3262 2.999,150.4712 L1.084,150.8442 Z M4.025,161.0882 C3.212,158.9582 2.512,156.7852 1.946,154.6272 L3.834,154.1322 C4.382,156.2222 5.059,158.3282 5.848,160.3922 L4.025,161.0882 Z M8.6,170.7042 C7.466,168.7212 6.428,166.6902 5.516,164.6682 L7.294,163.8662 C8.181,165.8312 9.19,167.8072 10.293,169.7362 L8.6,170.7042 Z M14.489,179.5562 C13.104,177.7372 11.797,175.8732 10.606,174.0142 L12.249,172.9612 C13.411,174.7752 14.687,176.5962 16.042,178.3732 L14.489,179.5562 Z M21.396,187.6192 C19.822,185.9712 18.309,184.2752 16.897,182.5792 L18.397,181.3312 C19.78,182.9932 21.264,184.6552 22.808,186.2712 L21.396,187.6192 Z M29.086,194.9232 C27.368,193.4362 25.694,191.9012 24.113,190.3612 L25.474,188.9632 C27.028,190.4772 28.673,191.9852 30.362,193.4482 L29.086,194.9232 Z M37.389,201.5102 C35.563,200.1822 33.764,198.7992 32.041,197.3992 L33.271,195.8842 C34.968,197.2632 36.739,198.6242 38.537,199.9332 L37.389,201.5102 Z M46.206,207.3972 C44.32,206.2482 42.413,205.0152 40.539,203.7332 L41.64,202.1222 C43.486,203.3852 45.364,204.5992 47.221,205.7302 L46.206,207.3972 Z" id="Fill-9" fill="#5B5784"></path>                <path d="M65.0967,48.8166 L64.0657,47.1596 C65.0237,46.5646 65.9937,45.9656 66.9797,45.3636 L67.9967,47.0276 C67.0167,47.6286 66.0497,48.2246 65.0967,48.8166" id="Fill-11" fill="#5B5784"></path>                <polygon id="Fill-13" fill="#E1EAF7" points="127.333 195.738 292.482 195.738 292.482 73.353 127.333 73.353"></polygon>                <path d="M126.332,196.738 L293.481,196.738 L293.481,72.353 L126.332,72.353 L126.332,196.738 Z M128.332,194.739 L291.481,194.739 L291.481,74.354 L128.332,74.354 L128.332,194.739 Z" id="Fill-15" fill="#535353"></path>                <polygon id="Fill-16" fill="#FFFFFF" points="142.089 208.629 316.147 208.629 316.147 94.006 142.089 94.006"></polygon>                <path d="M141.089,209.629 L317.147,209.629 L317.147,93.006 L141.089,93.006 L141.089,209.629 Z M143.089,207.628 L315.147,207.628 L315.147,95.005 L143.089,95.005 L143.089,207.628 Z" id="Fill-17" fill="#535353"></path>                <path d="M121.8647,265.8132 L121.8647,133.8072 L223.3767,193.4452 C223.8707,193.7352 224.5077,193.8952 225.1687,193.8952 C225.8287,193.8952 226.4657,193.7352 226.9607,193.4452 L328.5687,133.7512 L328.5687,265.8132 L121.8647,265.8132 Z" id="Fill-18" fill="#C7DEF9"></path>                <path d="M329.5684,132.0032 L245.0044,181.6852 L226.4554,192.5832 C226.0994,192.7912 225.6334,192.8952 225.1694,192.8952 C224.7034,192.8952 224.2384,192.7912 223.8834,192.5832 L205.4544,181.7562 L120.8644,132.0592 L120.8644,266.3462 L120.8644,266.8132 L329.5684,266.8132 L329.5684,266.2502 L329.5684,132.0032 Z M327.5684,135.4982 L327.5684,264.8132 L122.8644,264.8132 L122.8644,135.5542 L204.4414,183.4812 L222.8714,194.3072 C223.6984,194.7932 224.5774,194.8952 225.1694,194.8952 C226.0164,194.8952 226.8104,194.6922 227.4674,194.3072 L246.0164,183.4092 L327.5684,135.4982 L327.5684,135.4982 Z" id="Fill-19" fill="#535353"></path>                <path d="M122.9575,265.8132 L224.6575,172.0472 C224.8155,171.9002 225.0325,171.8202 225.2655,171.8202 C225.4985,171.8202 225.7125,171.9002 225.8695,172.0452 L327.5715,265.8132 L122.9575,265.8132 Z" id="Fill-20" fill="#1976D2"></path>                <path d="M225.2656,170.8205 C224.7996,170.8205 224.3346,170.9845 223.9796,171.3115 L120.8646,266.3825 L120.8646,266.8135 L329.5686,266.8135 L329.5686,266.2945 L226.5486,171.3115 C226.1946,170.9845 225.7306,170.8205 225.2656,170.8205 M225.2646,172.8475 L325.0106,264.8135 L125.5176,264.8135 L225.2646,172.8475" id="Fill-21" fill="#535353"></path>                <path d="M169.9087,280.1853 C169.9087,281.013713 169.1807,281.6853 168.2827,281.6853 L9.5907,281.6853 C8.6917,281.6853 7.9637,281.013713 7.9637,280.1853 C7.9637,279.356887 8.6917,278.6853 9.5907,278.6853 L168.2827,278.6853 C169.1807,278.6853 169.9087,279.356887 169.9087,280.1853" id="Fill-22" fill="#535353"></path>                <path d="M211,280.1853 C211,281.013713 210.5493,281.6853 209.993355,281.6853 L182.007264,281.6853 C181.451319,281.6853 181,281.013713 181,280.1853 C181,279.356887 181.451319,278.6853 182.007264,278.6853 L209.993355,278.6853 C210.5493,278.6853 211,279.356887 211,280.1853" id="Fill-23" fill="#535353"></path>                <path d="M152.404,288.968723 C152.404,289.796866 151.821,290.4693 151.103,290.4693 L83.301,290.4693 C82.583,290.4693 82,289.796866 82,288.968723 C82,288.14058 82.583,287.4693 83.301,287.4693 L151.103,287.4693 C151.821,287.4693 152.404,288.14058 152.404,288.968723" id="Fill-24" fill="#535353"></path>                <path d="M437.1377,294.2165 C437.1377,294.7555 436.5547,295.1925 435.8357,295.1925 L298.6067,295.1925 C297.8877,295.1925 297.3057,294.7555 297.3057,294.2165 C297.3057,293.6775 297.8877,293.2415 298.6067,293.2415 L435.8357,293.2415 C436.5547,293.2415 437.1377,293.6775 437.1377,294.2165" id="Fill-25" fill="#535353"></path>                <path d="M290,294.217 C290,294.756 289.786853,295.193 289.523984,295.193 L280.475651,295.193 C280.212782,295.193 280,294.756 280,294.217 C280,293.678 280.212782,293.241 280.475651,293.241 L289.523984,293.241 C289.786853,293.241 290,293.678 290,294.217" id="Fill-26" fill="#535353"></path>                <path d="M399.6309,302.8674 C399.6309,303.4064 399.0479,303.8434 398.3299,303.8434 L348.3399,303.8434 C347.6209,303.8434 347.0389,303.4064 347.0389,302.8674 C347.0389,302.3284 347.6209,301.8914 348.3399,301.8914 L398.3299,301.8914 C399.0479,301.8914 399.6309,302.3284 399.6309,302.8674" id="Fill-27" fill="#535353"></path>                <path d="M447.7627,302.8674 C447.7627,303.4064 447.1797,303.8434 446.4617,303.8434 L415.5747,303.8434 C414.8567,303.8434 414.2747,303.4064 414.2747,302.8674 C414.2747,302.3284 414.8567,301.8914 415.5747,301.8914 L446.4617,301.8914 C447.1797,301.8914 447.7627,302.3284 447.7627,302.8674" id="Fill-28" fill="#535353"></path>                <path d="M309.1758,294.0632 L309.1758,221.0412 L365.5948,254.1872 C365.9398,254.3892 366.3758,254.5012 366.8238,254.5012 C367.2728,254.5012 367.7088,254.3892 368.0538,254.1872 L424.5268,221.0092 L424.5268,294.0632 L309.1758,294.0632 Z" id="Fill-29" fill="#E1D8F1"></path>                <path d="M425.5264,219.2619 L377.9774,247.1979 L367.5474,253.3249 C367.3464,253.4429 367.0864,253.5009 366.8244,253.5009 C366.5624,253.5009 366.3014,253.4429 366.1014,253.3249 L355.7404,247.2369 L308.1754,219.2939 L308.1754,294.8009 L308.1754,295.0629 L425.5264,295.0629 L425.5264,294.7469 L425.5264,219.2619 Z M423.5264,222.7569 L423.5264,293.0629 L310.1754,293.0629 L310.1754,222.7879 L354.7274,248.9609 L365.0884,255.0489 C365.5904,255.3449 366.1914,255.5009 366.8244,255.5009 C367.4574,255.5009 368.0574,255.3449 368.5594,255.0499 L378.9904,248.9219 L423.5264,222.7569 L423.5264,222.7569 Z" id="Fill-30" fill="#535353"></path>                <polygon id="Fill-31" fill="#8480C4" points="310.4736 294.0632 366.8336 242.1002 423.2806 294.0632"></polygon>                <path d="M366.8789,241.0881 C366.6169,241.0881 366.3569,241.1801 366.1559,241.3641 L308.1759,294.8211 L308.1759,295.0631 L425.5259,295.0631 L425.5259,294.7721 L367.6019,241.3641 C367.4009,241.1801 367.1409,241.0881 366.8789,241.0881 M366.8789,243.4191 L420.7229,293.0631 L313.0329,293.0631 L366.8789,243.4191" id="Fill-32" fill="#535353"></path>                <path d="M366.8242,266.9631 C366.7732,266.9631 366.7372,266.9491 366.7282,266.9421 L309.1762,220.6001 L309.1762,218.3731 L424.5262,218.3731 L424.5262,220.5571 L366.9202,266.9431 L366.8242,266.9631 Z" id="Fill-33" fill="#C1ACEA"></path>                <path d="M425.5264,217.3733 L308.1754,217.3733 L308.1754,219.8113 L308.1754,221.0443 L308.1754,221.0793 L366.1014,267.7223 C366.3014,267.8833 366.5624,267.9633 366.8244,267.9633 C367.0864,267.9633 367.3464,267.8833 367.5474,267.7223 L425.5154,221.0443 L425.5264,221.0443 L425.5264,221.0353 L425.5264,219.8113 L425.5264,217.3733 Z M423.5264,219.3733 L423.5264,219.8113 L423.5264,220.0793 L366.8244,265.7363 L310.1754,220.1213 L310.1754,219.8113 L310.1754,219.3733 L423.5264,219.3733 L423.5264,219.3733 Z" id="Fill-34" fill="#535353"></path>                <polygon id="Fill-35" fill="#D5D0E7" points="74.6465 27.3303 63.8225 13.8053 130.5695 10.7303"></polygon>                <polygon id="Fill-36" fill="#7269AE" points="74.6465 27.3303 75.9125 45.3393 79.2295 32.8983 130.4115 10.8053"></polygon>                <polygon id="Fill-37" fill="#5854A2" points="75.9126 45.3391 87.8546 41.1201 80.5646 32.3731 79.2296 32.8991"></polygon>                <polygon id="Fill-38" fill="#D5D0E7" points="130.5693 10.7307 95.2023 51.3947 79.2293 32.8987"></polygon>                <path d="M315.6484,49.3786 C311.3514,48.8536 308.8364,48.6056 308.8124,48.6026 L309.0024,46.6616 C309.0284,46.6636 311.5634,46.9136 315.8844,47.4416 L315.6484,49.3786 Z M326.3204,50.7936 C323.8354,50.4406 321.5604,50.1326 319.5334,49.8696 L319.7854,47.9346 C321.8194,48.1986 324.1014,48.5066 326.5944,48.8606 L326.3204,50.7936 Z M336.9504,52.3996 C334.5854,52.0206 332.3254,51.6736 330.1874,51.3556 L330.4754,49.4256 C332.6194,49.7446 334.8854,50.0936 337.2584,50.4736 L336.9504,52.3996 Z M347.5434,54.1926 C345.2304,53.7806 342.9804,53.3926 340.8044,53.0296 L341.1254,51.1056 C343.3084,51.4686 345.5664,51.8576 347.8854,52.2726 L347.5434,54.1926 Z M358.0954,56.1806 C355.8184,55.7286 353.5774,55.2986 351.3824,54.8926 L351.7394,52.9736 C353.9414,53.3816 356.1894,53.8126 358.4754,54.2666 L358.0954,56.1806 Z M368.6024,58.3776 C366.3514,57.8816 364.1224,57.4076 361.9194,56.9536 L362.3144,55.0426 C364.5244,55.4986 366.7624,55.9746 369.0214,56.4716 L368.6024,58.3776 Z M379.0534,60.8046 C376.8284,60.2586 374.6114,59.7346 372.4084,59.2306 L372.8424,57.3296 C375.0554,57.8356 377.2834,58.3616 379.5184,58.9096 L379.0534,60.8046 Z M389.4184,63.4906 C387.2214,62.8886 385.0214,62.3076 382.8234,61.7466 L383.3054,59.8566 C385.5144,60.4206 387.7274,61.0036 389.9344,61.6086 L389.4184,63.4906 Z M399.7234,66.4886 C397.6144,65.8366 395.4154,65.1826 393.1854,64.5456 L393.7224,62.6696 C395.9634,63.3106 398.1774,63.9676 400.2994,64.6246 L399.7234,66.4886 Z M409.8984,69.8426 C407.8094,69.1066 405.6344,68.3726 403.4394,67.6626 L404.0394,65.8056 C406.2524,66.5216 408.4404,67.2606 410.5454,68.0016 L409.8984,69.8426 Z M419.9034,73.6346 C417.8734,72.8056 415.7374,71.9746 413.5574,71.1656 L414.2364,69.3366 C416.4364,70.1526 418.5914,70.9916 420.6414,71.8286 L419.9034,73.6346 Z M429.6654,77.9786 C427.6924,77.0196 425.6124,76.0656 423.4864,75.1436 L424.2614,73.3536 C426.4154,74.2866 428.5194,75.2526 430.5164,76.2236 L429.6654,77.9786 Z M439.0424,83.0336 C437.1894,81.9196 435.2004,80.8046 433.1274,79.7216 L434.0304,77.9926 C436.1374,79.0936 438.1624,80.2266 440.0474,81.3606 L439.0424,83.0336 Z M447.7724,89.0406 C446.1044,87.7106 444.2674,86.3816 442.3114,85.0916 L443.3854,83.4626 C445.3904,84.7846 447.2754,86.1486 448.9904,87.5156 L447.7724,89.0406 Z M455.3114,96.3346 C453.9774,94.7156 452.4244,93.0976 450.6954,91.5266 L452.0074,90.0826 C453.8054,91.7166 455.4234,93.4036 456.8164,95.0946 L455.3114,96.3346 Z M460.5564,105.1816 C459.8244,103.2226 458.8174,101.2676 457.5624,99.3716 L459.1894,98.2956 C460.5254,100.3146 461.6004,102.4016 462.3834,104.4986 L460.5564,105.1816 Z M463.9944,115.3856 L462.0464,115.2576 C462.0834,114.7116 462.1014,114.1706 462.1014,113.6326 C462.1014,111.9936 461.9304,110.3506 461.5944,108.7496 L463.5044,108.3486 C463.8684,110.0816 464.0514,111.8586 464.0514,113.6326 C464.0514,114.2126 464.0324,114.7966 463.9944,115.3856 L463.9944,115.3856 Z M461.2504,126.0516 L459.4644,125.2646 C460.3974,123.1496 461.0904,121.0346 461.5264,118.9796 L463.4354,119.3846 C462.9714,121.5706 462.2364,123.8136 461.2504,126.0516 L461.2504,126.0516 Z M455.6994,135.4576 L454.1274,134.3016 C455.5174,132.4106 456.7414,130.5176 457.7654,128.6756 L459.4704,129.6236 C458.4074,131.5376 457.1384,133.5006 455.6994,135.4576 L455.6994,135.4576 Z M451.7114,140.3936 L450.2474,139.1046 C450.7694,138.5106 451.2734,137.9196 451.7594,137.3316 L453.2624,138.5746 C452.7654,139.1766 452.2484,139.7836 451.7114,140.3936 L451.7114,140.3936 Z" id="Fill-39" fill="#5B5784"></path>                <polygon id="Fill-40" fill="#CBDEFA" points="412.7998 136.5593 405.3868 187.6343 435.6578 143.8733"></polygon>                <polygon id="Fill-41" fill="#9AB2DC" points="435.6582 143.8733 438.0902 156.5643 405.3872 187.6343"></polygon>                <polygon id="Fill-42" fill="#CBDEFA" points="405.3867 187.634 445.9677 147.126 471.9997 155.698"></polygon>                <path d="M237.5527,131.03 C237.5527,133.112 235.6467,134.8 233.2957,134.8 L168.0457,134.8 C165.6947,134.8 163.7887,133.112 163.7887,131.03 C163.7887,128.949 165.6947,127.261 168.0457,127.261 L233.2957,127.261 C235.6467,127.261 237.5527,128.949 237.5527,131.03" id="Fill-43" fill="#6494DB"></path>                <path d="M271.7656,131.03 C271.7656,133.112 269.8596,134.8 267.5086,134.8 L247.2706,134.8 C244.9186,134.8 243.0126,133.112 243.0126,131.03 C243.0126,128.949 244.9186,127.261 247.2706,127.261 L267.5086,127.261 C269.8596,127.261 271.7656,128.949 271.7656,131.03" id="Fill-44" fill="#6494DB"></path>                <path d="M216.4644,116.0471 C216.4644,118.1291 214.5584,119.8161 212.2074,119.8161 L178.4514,119.8161 C176.1004,119.8161 174.1944,118.1291 174.1944,116.0471 C174.1944,113.9651 176.1004,112.2781 178.4514,112.2781 L212.2074,112.2781 C214.5584,112.2781 216.4644,113.9651 216.4644,116.0471" id="Fill-45" fill="#6494DB"></path>                <path d="M243.4551,116.0471 C243.4551,118.1291 241.5491,119.8161 239.1981,119.8161 L228.8551,119.8161 C226.5041,119.8161 224.5991,118.1291 224.5991,116.0471 C224.5991,113.9651 226.5041,112.2781 228.8551,112.2781 L239.1981,112.2781 C241.5491,112.2781 243.4551,113.9651 243.4551,116.0471" id="Fill-46" fill="#6494DB"></path>                <path d="M290.5908,119.2346 C279.8488,119.2346 271.1088,110.4946 271.1088,99.7526 C271.1088,89.0096 279.8488,80.2696 290.5908,80.2696 C301.3328,80.2696 310.0728,89.0096 310.0728,99.7526 C310.0728,110.4946 301.3328,119.2346 290.5908,119.2346" id="Fill-47" fill="#0EB57F"></path>                <path d="M290.5908,79.2698 C279.2788,79.2698 270.1088,88.4398 270.1088,99.7518 C270.1088,111.0638 279.2788,120.2348 290.5908,120.2348 C301.9028,120.2348 311.0728,111.0638 311.0728,99.7518 C311.0728,88.4398 301.9028,79.2698 290.5908,79.2698 M290.5908,81.2698 C300.7818,81.2698 309.0728,89.5608 309.0728,99.7518 C309.0728,109.9438 300.7818,118.2348 290.5908,118.2348 C280.3998,118.2348 272.1088,109.9438 272.1088,99.7518 C272.1088,89.5608 280.3998,81.2698 290.5908,81.2698" id="Fill-48" fill="#535353"></path>                <path d="M301.7383,93.1975 L299.6843,91.1425 C299.3423,90.7995 298.7853,90.7995 298.4423,91.1425 L287.2103,102.3755 L282.7413,97.9055 C282.3973,97.5625 281.8423,97.5625 281.4983,97.9055 L279.4433,99.9605 C279.1003,100.3035 279.1003,100.8595 279.4433,101.2025 L286.6023,108.3625 C286.9463,108.7045 287.5013,108.7045 287.8443,108.3625 L289.8993,106.3065 C289.9233,106.2825 289.9323,106.2525 289.9533,106.2265 L301.7383,94.4405 C302.0833,94.0965 302.0833,93.5415 301.7383,93.1975" id="Fill-49" fill="#FFFFFF"></path>                <path d="M73.7803,181.4783 C73.7803,185.3023 70.6803,188.4033 66.8553,188.4033 C63.0303,188.4033 59.9303,185.3023 59.9303,181.4783 C59.9303,177.6543 63.0303,174.5533 66.8553,174.5533 C70.6803,174.5533 73.7803,177.6543 73.7803,181.4783" id="Fill-50" fill="#C7DEF9"></path>                <path d="M326.6553,20.1614 C326.6553,23.9324 323.5973,26.9904 319.8273,26.9904 C316.0543,26.9904 312.9983,23.9324 312.9983,20.1614 C312.9983,16.3904 316.0543,13.3324 319.8273,13.3324 C323.5973,13.3324 326.6553,16.3904 326.6553,20.1614 Z" id="Stroke-51" stroke="#535353" stroke-width="2"></path>                <path d="M162.4316,38.0471 C162.4316,40.7401 160.2466,42.9241 157.5536,42.9241 C154.8596,42.9241 152.6756,40.7401 152.6756,38.0471 C152.6756,35.3531 154.8596,33.1691 157.5536,33.1691 C160.2466,33.1691 162.4316,35.3531 162.4316,38.0471" id="Fill-52" fill="#FFFFFF"></path>                <path d="M376.4082,127.4748 C376.4082,130.5278 373.9312,133.0028 370.8802,133.0028 C367.8262,133.0028 365.3502,130.5278 365.3502,127.4748 C365.3502,124.4218 367.8262,121.9468 370.8802,121.9468 C373.9312,121.9468 376.4082,124.4218 376.4082,127.4748" id="Fill-53" fill="#9AB2DC"></path>                <path d="M306.8164,5.5281 C306.8164,8.5811 304.3404,11.0561 301.2884,11.0561 C298.2344,11.0561 295.7594,8.5811 295.7594,5.5281 C295.7594,2.4751 298.2344,0.0001 301.2884,0.0001 C304.3404,0.0001 306.8164,2.4751 306.8164,5.5281" id="Fill-54" fill="#9AB2DC"></path>                <path d="M62.8667,184.0329 C59.1087,184.0329 56.0137,180.9749 55.9687,177.2149 C55.9467,175.3719 56.6427,173.6309 57.9307,172.3119 C59.2187,170.9929 60.9427,170.2549 62.7857,170.2329 L62.7857,170.2329 C66.6297,170.2329 69.7227,173.2909 69.7677,177.0499 C69.7907,178.8929 69.0937,180.6339 67.8057,181.9529 C66.5187,183.2719 64.7947,184.0109 62.9507,184.0329 L62.8667,184.0329 Z" id="Fill-55" fill="#E6F3FF"></path>                <path d="M62.8701,169.2322 C62.8381,169.2322 62.8061,169.2322 62.7731,169.2322 C58.4111,169.2852 54.9161,172.8642 54.9691,177.2272 C55.0201,181.5582 58.5461,185.0332 62.8671,185.0332 C62.8991,185.0332 62.9321,185.0332 62.9631,185.0322 C67.3261,184.9802 70.8211,181.4002 70.7681,177.0382 C70.7161,172.7072 67.1901,169.2322 62.8701,169.2322 M62.8701,171.2322 C66.0841,171.2322 68.7291,173.8472 68.7681,177.0622 C68.8071,180.3152 66.1931,182.9932 62.9391,183.0322 L62.8671,183.0332 C59.6531,183.0332 57.0071,180.4182 56.9691,177.2032 C56.9501,175.6272 57.5451,174.1382 58.6461,173.0102 C59.7471,171.8832 61.2221,171.2512 62.7981,171.2322 L62.8701,171.2322" id="Fill-56" fill="#000000"></path>            </g>        </g>    </g></svg>